<?xml version="1.0" encoding="utf-8"?>
<!-- Generator: Adobe Illustrator 27.5.0, SVG Export Plug-In . SVG Version: 6.00 Build 0)  -->
<svg version="1.1" xmlns="http://www.w3.org/2000/svg" xmlns:xlink="http://www.w3.org/1999/xlink" x="0px" y="0px"
	 viewBox="0 0 500 500" style="enable-background:new 0 0 500 500;" xml:space="preserve">
<g id="Background_Complete">
	<g>
		<rect x="238.383" y="95.899" style="fill:#EBEBEB;" width="45.131" height="56.974"/>
		<rect x="258.104" y="151.595" style="fill:#E0E0E0;" width="6.26" height="1.52"/>
		<g>
			<polygon style="fill:#E0E0E0;" points="262.394,115.513 254.08,116.73 250.977,124.537 256.187,131.128 264.5,129.912 
				267.603,122.104 			"/>
			<polygon style="fill:#FAFAFA;" points="266.28,120.561 257.966,121.777 254.863,129.585 260.073,136.176 268.387,134.959 
				271.49,127.152 			"/>
		</g>
		<rect x="258.987" y="95.125" style="fill:#E0E0E0;" width="6.26" height="1.301"/>
	</g>
	<g>
		<rect x="309.959" y="118.975" style="fill:#F5F5F5;" width="30.655" height="65.62"/>
		<rect x="341.887" y="189.18" style="fill:#F5F5F5;" width="37.669" height="63.403"/>
		<polygon style="fill:#F5F5F5;" points="384.14,117.84 419.909,117.84 419.909,59.629 421.181,59.629 421.181,117.84 
			454.286,117.84 454.286,58.338 384.14,58.338 		"/>
		<rect x="309.959" y="189.18" style="fill:#F5F5F5;" width="30.655" height="63.403"/>
		<rect x="421.181" y="189.18" style="fill:#F5F5F5;" width="33.105" height="63.403"/>
		<rect x="341.887" y="118.975" style="fill:#F5F5F5;" width="37.669" height="65.62"/>
		<rect x="421.181" y="118.975" style="fill:#F5F5F5;" width="33.105" height="65.62"/>
		<rect x="309.959" y="253.717" style="fill:#F5F5F5;" width="30.655" height="57.133"/>
		<polygon style="fill:#F5F5F5;" points="340.614,117.84 340.614,59.629 341.887,59.629 341.887,117.84 379.556,117.84 
			379.556,58.338 309.959,58.338 309.959,117.84 		"/>
		<rect x="341.887" y="253.717" style="fill:#F5F5F5;" width="37.669" height="57.133"/>
		<rect x="421.181" y="253.717" style="fill:#F5F5F5;" width="33.105" height="57.133"/>
		<rect x="384.14" y="118.975" style="fill:#F5F5F5;" width="35.769" height="65.62"/>
		<rect x="384.14" y="253.717" style="fill:#F5F5F5;" width="35.769" height="57.133"/>
		<rect x="384.14" y="189.18" style="fill:#F5F5F5;" width="35.769" height="63.403"/>
	</g>
	<g>
		<rect x="72.803" y="118.975" style="fill:#F5F5F5;" width="30.655" height="65.62"/>
		<rect x="104.732" y="189.18" style="fill:#F5F5F5;" width="37.668" height="63.403"/>
		<polygon style="fill:#F5F5F5;" points="146.984,117.84 182.753,117.84 182.753,59.629 184.026,59.629 184.026,117.84 
			217.13,117.84 217.13,58.338 146.984,58.338 		"/>
		<rect x="72.803" y="189.18" style="fill:#F5F5F5;" width="30.655" height="63.403"/>
		<rect x="184.026" y="189.18" style="fill:#F5F5F5;" width="33.104" height="63.403"/>
		<rect x="104.732" y="118.975" style="fill:#F5F5F5;" width="37.668" height="65.62"/>
		<rect x="184.026" y="118.975" style="fill:#F5F5F5;" width="33.104" height="65.62"/>
		<rect x="72.803" y="253.717" style="fill:#F5F5F5;" width="30.655" height="57.133"/>
		<polygon style="fill:#F5F5F5;" points="103.459,117.84 103.459,59.629 104.732,59.629 104.732,117.84 142.4,117.84 142.4,58.338 
			72.803,58.338 72.803,117.84 		"/>
		<rect x="104.732" y="253.717" style="fill:#F5F5F5;" width="37.668" height="57.133"/>
		<rect x="184.026" y="253.717" style="fill:#F5F5F5;" width="33.104" height="57.133"/>
		<rect x="146.984" y="118.975" style="fill:#F5F5F5;" width="35.769" height="65.62"/>
		<rect x="146.984" y="253.717" style="fill:#F5F5F5;" width="35.769" height="57.133"/>
		<rect x="146.984" y="189.18" style="fill:#F5F5F5;" width="35.769" height="63.403"/>
	</g>
	<g>
		<g>
			<g>
				<polygon style="fill:#EBEBEB;" points="382.275,412.02 382.275,441.409 425.253,441.409 472.655,441.409 472.655,412.02 				"/>
			</g>
			<g>
				<polygon style="fill:#E0E0E0;" points="378.483,403.803 378.483,412.02 475.815,412.02 475.815,403.803 425.253,403.803 				"/>
			</g>
			<g>
				<polygon style="fill:#E0E0E0;" points="427.149,441.409 472.655,441.409 472.655,412.02 475.815,412.02 475.815,403.803 
					425.253,403.803 425.253,411.259 				"/>
			</g>
			<g>
				<rect x="394.915" y="416.759" style="fill:#E0E0E0;" width="18.329" height="4.424"/>
			</g>
			<g>
				<rect x="392.557" y="426.714" style="fill:#F5F5F5;" width="23.535" height="9.342"/>
			</g>
		</g>
	</g>
	<g>
		<g>
			<g>
				<polygon style="fill:#EBEBEB;" points="404.602,371.354 404.471,360.306 443.184,363.624 444.392,374.553 				"/>
				
					<rect x="423.966" y="355.185" transform="matrix(0.0852 -0.9964 0.9964 0.0852 22.7597 759.4626)" style="fill:#E0E0E0;" width="1.993" height="24.304"/>
			</g>
			<g>
				<g>
					<polygon style="fill:#E0E0E0;" points="399.987,360.864 399.973,349.815 438.648,353.543 439.633,363.415 					"/>
					<polygon style="fill:#FFFFFF;" points="399.975,351.318 399.956,358.773 437.645,361.554 437.016,354.674 					"/>
					<g>
						<path style="fill:#F5F5F5;" d="M434.78,357.539c-0.004,0.036-0.49,0.021-1.366-0.036c-0.976-0.077-2.219-0.174-3.706-0.291
							c-3.126-0.268-7.441-0.675-12.204-1.156c-4.764-0.481-9.074-0.946-12.192-1.308c-1.48-0.183-2.718-0.336-3.69-0.456
							c-0.87-0.119-1.35-0.202-1.347-0.238s0.488-0.021,1.364,0.036c0.976,0.077,2.219,0.174,3.704,0.291
							c3.126,0.268,7.443,0.675,12.209,1.157c4.764,0.481,9.075,0.946,12.193,1.309c1.48,0.183,2.717,0.336,3.689,0.456
							C434.305,357.42,434.784,357.503,434.78,357.539z"/>
					</g>
					<g>
						<path style="fill:#F5F5F5;" d="M434.702,358.474c-0.003,0.036-0.493,0.036-1.377,0.006c-0.984-0.047-2.239-0.106-3.74-0.177
							c-3.157-0.172-7.515-0.446-12.326-0.781c-4.812-0.335-9.166-0.667-12.316-0.933c-1.496-0.137-2.746-0.252-3.727-0.342
							c-0.879-0.092-1.364-0.16-1.361-0.196c0.003-0.036,0.493-0.036,1.377-0.006c0.984,0.047,2.239,0.106,3.74,0.177
							c3.157,0.172,7.515,0.446,12.327,0.781c4.81,0.335,9.164,0.667,12.313,0.933c1.496,0.137,2.747,0.252,3.728,0.342
							C434.22,358.37,434.705,358.438,434.702,358.474z"/>
					</g>
				</g>
			</g>
		</g>
		<g>
			<g>
				<g>
					<polygon style="fill:#E0E0E0;" points="405.047,381.54 404.904,370.491 443.62,373.773 444.72,383.635 					"/>
				</g>
			</g>
			<g>
				<path style="fill:#F5F5F5;" d="M409.313,381.77c-0.144,0.002-0.356-2.435-0.473-5.442c-0.117-3.008-0.096-5.454,0.048-5.463
					c0.143-0.009,0.355,2.427,0.473,5.443C409.478,379.322,409.457,381.768,409.313,381.77z"/>
			</g>
			<g>
				<path style="fill:#F5F5F5;" d="M410.769,370.988c0.144-0.003,0.313,2.428,0.378,5.429c0.065,3.002,0.001,5.438-0.142,5.441
					c-0.144,0.003-0.313-2.427-0.378-5.429C410.562,373.427,410.626,370.991,410.769,370.988z"/>
			</g>
			<g>
				<path style="fill:#FFFFFF;" d="M414.292,375.853c6.747,0.744,14.683,1.171,21.544,1.782"/>
				<g>
					<path style="fill:#F5F5F5;" d="M435.836,377.635c-0.007,0.073-1.217,0.028-3.17-0.08c-1.953-0.109-4.649-0.276-7.626-0.498
						c-2.978-0.222-5.671-0.471-7.616-0.702c-1.945-0.229-3.14-0.432-3.133-0.501c0.008-0.073,1.217,0,3.167,0.135
						c2.106,0.152,4.724,0.341,7.62,0.549c2.976,0.221,5.669,0.447,7.616,0.65C434.643,377.389,435.843,377.565,435.836,377.635z"/>
				</g>
			</g>
			<g>
				<path style="fill:#F5F5F5;" d="M438.665,383.315c-0.144,0.007-0.368-2.202-0.502-4.932c-0.134-2.732-0.125-4.951,0.018-4.958
					c0.143-0.007,0.368,2.201,0.502,4.933C438.816,381.088,438.808,383.308,438.665,383.315z"/>
			</g>
			<g>
				<path style="fill:#F5F5F5;" d="M441.05,383.44c-0.143,0.014-0.478-2.192-0.747-4.927c-0.27-2.736-0.372-4.965-0.229-4.979
					s0.477,2.192,0.747,4.928C441.091,381.197,441.193,383.426,441.05,383.44z"/>
			</g>
			<g>
				<path style="fill:#FFFFFF;" d="M420.038,378.327c4.267,0.292,7.517,0.505,10.916,0.583"/>
				<g>
					<path style="fill:#F5F5F5;" d="M430.953,378.91c-0.003,0.144-2.452,0.13-5.47-0.031c-3.019-0.161-5.457-0.408-5.446-0.552
						c0.01-0.143,2.459-0.129,5.47,0.031C428.518,378.519,430.956,378.766,430.953,378.91z"/>
				</g>
			</g>
		</g>
		<g>
			<g>
				<polygon style="fill:#EBEBEB;" points="407.644,403.116 406.916,392.091 445.753,393.318 447.372,403.108 				"/>
				<polygon style="fill:#FFFFFF;" points="409.181,401.731 446.973,401.191 445.921,394.327 408.469,393.635 				"/>
			</g>
		</g>
		<g>
			<polygon style="fill:#F5F5F5;" points="408.701,392.308 408.344,381.265 447.117,383.794 448.407,393.633 			"/>
			
				<rect x="427.979" y="375.725" transform="matrix(0.0649 -0.9979 0.9979 0.0649 14.0711 790.7706)" style="fill:#E0E0E0;" width="1.993" height="24.304"/>
		</g>
		<g>
			<path style="fill:#EBEBEB;" d="M446.309,397.152c-0.001,0.036-0.529,0.072-1.484,0.107c-1.051,0.026-2.41,0.059-4.044,0.099
				c-3.414,0.06-8.129,0.108-13.337,0.128c-5.21,0.02-9.926,0.01-13.34-0.024c-1.633-0.027-2.993-0.05-4.044-0.067
				c-0.955-0.027-1.484-0.06-1.484-0.096c-0.001-0.036,0.526-0.072,1.481-0.107c1.051-0.026,2.41-0.059,4.042-0.099
				c3.414-0.06,8.132-0.108,13.344-0.128c5.21-0.02,9.928-0.01,13.342,0.024c1.633,0.027,2.992,0.05,4.043,0.067
				C445.781,397.084,446.309,397.116,446.309,397.152z"/>
		</g>
		<g>
			<path style="fill:#EBEBEB;" d="M446.753,399.293c-0.001,0.036-0.534,0.063-1.496,0.081c-1.058,0.007-2.427,0.016-4.073,0.027
				c-3.439,0-8.187-0.037-13.432-0.109c-5.246-0.072-9.995-0.167-13.432-0.262c-1.645-0.056-3.013-0.103-4.07-0.139
				c-0.961-0.044-1.493-0.086-1.493-0.122s0.531-0.063,1.493-0.081c1.057-0.007,2.426-0.016,4.072-0.027
				c3.439,0,8.189,0.037,13.437,0.109c5.246,0.072,9.996,0.167,13.433,0.262c1.645,0.056,3.013,0.103,4.07,0.139
				C446.223,399.216,446.754,399.257,446.753,399.293z"/>
		</g>
	</g>
</g>
<g id="Background_Simple" style="display:none;">
	<path style="display:inline;fill:#F5F5F5;" d="M400.774,160.733c23.925,50.904,17.249,113.725-14.284,160.301
		c-31.533,46.576-83.993,76.731-139.157,87.712c-39.378,7.838-81.74,6.242-117.72-11.576s-64.272-53.667-66.429-93.76
		c-0.815-15.143,2.397-31.224,12.503-42.531c16.136-18.055,43.684-18.691,67.887-17.946c24.204,0.745,51.733,0.18,67.948-17.804
		c12.459-13.819,14.294-33.863,20.859-51.273c11.164-29.602,38.096-52.715,69.049-59.258c17.197-3.635,35.328-2.09,51.853,3.868
		c19.836,7.152,36.302,21.566,46.376,40.09C400.092,159.354,400.471,160.089,400.774,160.733z"/>
</g>
<g id="Floor">
	<g>
		<path style="fill:#263238;" d="M465.172,441.414c0,0.144-96.344,0.26-215.162,0.26c-118.859,0-215.182-0.117-215.182-0.26
			c0-0.144,96.323-0.26,215.182-0.26C368.828,441.153,465.172,441.27,465.172,441.414z"/>
	</g>
</g>
<g id="Plant">
	<g>
		<g>
			<g>
				<path style="fill:#E8505B;" d="M67.967,317.246c-5.292,0.851-7.658,7.354-7.195,12.694c0.463,5.34,2.658,10.56,2.071,15.887
					c-0.746,6.766-5.858,12.484-6.454,19.265c-0.702,7.997,4.951,15.089,6.64,22.937c0.822,3.818,0.707,7.856,2.128,11.493
					c2.397,6.134,9.427,10.072,15.91,8.915c6.483-1.158,11.714-7.287,11.84-13.871c0.117-6.14-3.672-11.923-3.211-18.047
					c0.34-4.527,2.993-8.816,2.425-13.319c-0.676-5.358-5.641-9.164-7.394-14.273c-1.752-5.11-0.069-10.741-0.674-16.11
					C82.968,323.187,77.629,316.473,67.967,317.246"/>
			</g>
			<g>
				<path style="fill:#E8505B;" d="M40.945,363.878c-0.9,8.924,3.046,19.423,7.635,27.128c4.589,7.706,11.703,13.88,19.978,17.34
					c0.933,0.391,2.095,0.718,2.88,0.081c0.643-0.523,0.724-1.46,0.729-2.289c0.063-9.391-2.993-18.776-8.573-26.329
					C58.012,372.254,49.939,366.576,40.945,363.878"/>
			</g>
			<g style="opacity:0.1;">
				<path d="M40.945,363.878c-0.9,8.924,3.046,19.423,7.635,27.128c4.589,7.706,11.703,13.88,19.978,17.34
					c0.933,0.391,2.095,0.718,2.88,0.081c0.643-0.523,0.724-1.46,0.729-2.289c0.063-9.391-2.993-18.776-8.573-26.329
					C58.012,372.254,49.939,366.576,40.945,363.878"/>
			</g>
			<g>
				<g>
					<path style="fill:#263238;" d="M79.818,427.004c-0.016,0.006-0.103-0.165-0.254-0.497c-0.168-0.385-0.379-0.869-0.637-1.462
						c-0.536-1.275-1.338-3.109-2.359-5.361c-2.038-4.505-5.058-10.638-8.86-17.153c-3.811-6.512-7.674-12.154-10.598-16.14
						c-1.461-1.995-2.665-3.594-3.514-4.687c-0.39-0.516-0.707-0.936-0.961-1.272c-0.215-0.295-0.322-0.454-0.308-0.465
						c0.014-0.011,0.147,0.127,0.388,0.401c0.273,0.32,0.615,0.722,1.036,1.213c0.896,1.056,2.146,2.624,3.646,4.595
						c3.004,3.939,6.925,9.567,10.749,16.099c3.813,6.534,6.792,12.711,8.75,17.262c0.981,2.275,1.734,4.134,2.214,5.434
						c0.223,0.607,0.404,1.102,0.549,1.497C79.779,426.815,79.835,426.998,79.818,427.004z"/>
				</g>
			</g>
			<g>
				<g>
					<path style="fill:#263238;" d="M74.073,341.934c0.018-0.001,0.051,0.294,0.097,0.856c0.044,0.606,0.104,1.425,0.178,2.458
						c0.14,2.182,0.338,5.26,0.582,9.042c0.482,7.635,1.159,18.183,1.978,29.827c0.821,11.648,1.628,22.186,2.22,29.814
						c0.289,3.779,0.524,6.853,0.691,9.035c0.07,1.032,0.126,1.852,0.167,2.458c0.033,0.562,0.042,0.859,0.024,0.86
						c-0.017,0.001-0.06-0.292-0.126-0.851c-0.065-0.604-0.152-1.422-0.262-2.45c-0.206-2.179-0.495-5.248-0.852-9.022
						c-0.684-7.622-1.548-18.158-2.368-29.808c-0.819-11.647-1.44-22.2-1.83-29.842c-0.176-3.786-0.319-6.867-0.421-9.052
						c-0.035-1.034-0.063-1.856-0.084-2.462C74.054,342.232,74.056,341.935,74.073,341.934z"/>
				</g>
			</g>
		</g>
		<g>
			<path style="fill:#455A64;" d="M65.865,414.278h22.348v16.407c0,5.926-4.803,10.728-10.728,10.728l0,0
				c-5.702,0-10.408-4.46-10.713-10.155L65.865,414.278z"/>
		</g>
	</g>
</g>
<g id="Coffee">
	<g>
		<g>
			<g>
				<path style="fill:#E8505B;" d="M356.921,279.291c-1.348-1.139-3.189-1.285-4.325-1.245c0.006-0.833-0.031-1.347-0.031-1.347
					h-23.588c0,0-0.741,15.574,11.184,16.125c5.337,0.246,8.392-2.146,10.14-5.156c0.57,0.136,1.561,0.325,2.676,0.325
					c1.242,0,2.627-0.237,3.715-1.05c0.809-0.604,1.773-1.787,1.773-3.99C358.466,281.005,357.625,279.887,356.921,279.291z
					 M355.305,285.078c-1.007,0.755-2.811,0.639-3.986,0.427c0.665-1.777,0.993-3.597,1.148-5.122
					c0.807-0.05,2.166,0.017,2.954,0.684c0.485,0.409,0.72,1.026,0.72,1.886C356.141,283.962,355.867,284.656,355.305,285.078z"/>
			</g>
		</g>
		<g>
			<path style="fill:#263238;" d="M345.674,275.279c-0.031-0.016,0.181-0.177,0.191-0.592c0.002-0.4-0.301-1.019-0.974-1.418
				c-0.335-0.187-0.776-0.298-1.251-0.429c-0.472-0.136-1.028-0.275-1.51-0.676c-0.482-0.394-0.784-1.063-0.776-1.756
				c-0.004-0.693,0.209-1.408,0.599-2.058c0.808-1.312,2.27-2.139,3.293-3.435c0.998-1.299,1.361-3.206,0.852-4.989
				c-0.236-0.895-0.722-1.739-1.388-2.425c-0.677-0.679-1.589-1.131-2.522-1.598c-0.923-0.484-1.947-0.955-2.667-1.908
				c-0.34-0.467-0.588-1.004-0.697-1.586c-0.115-0.574-0.083-1.219,0.224-1.783c0.159-0.292,0.406-0.522,0.651-0.696l0.268,0.446
				c-1.817,1.013-2.595,3.286-2.269,5.18c0.16,0.964,0.611,1.835,1.293,2.481c0.674,0.661,1.533,1.208,2.046,2.104
				c0.248,0.445,0.374,0.961,0.347,1.459c-0.028,0.499-0.187,0.967-0.407,1.38c-0.449,0.827-1.108,1.461-1.818,1.945
				c-1.45,0.917-2.944,1.378-4.045,2.218c-1.13,0.803-1.68,2.007-1.77,3.092c-0.112,1.086,0.131,2.041,0.465,2.731
				c0.697,1.406,1.592,1.779,1.531,1.835c-0.005,0.008-0.054-0.016-0.147-0.069c-0.089-0.059-0.238-0.125-0.398-0.262
				c-0.337-0.249-0.784-0.704-1.165-1.414c-0.375-0.705-0.662-1.694-0.572-2.847c0.047-0.573,0.185-1.189,0.488-1.779
				c0.297-0.593,0.775-1.132,1.348-1.576c1.15-0.902,2.673-1.399,4.025-2.282c0.656-0.457,1.265-1.062,1.657-1.803
				c0.403-0.732,0.49-1.647,0.047-2.394c-0.43-0.756-1.245-1.287-1.975-1.983c-0.755-0.704-1.275-1.694-1.45-2.75
				c-0.359-2.078,0.461-4.558,2.518-5.722l0.268,0.446c-0.182,0.134-0.364,0.298-0.481,0.514c-0.455,0.856-0.143,2.018,0.436,2.808
				c0.589,0.8,1.569,1.287,2.479,1.759c0.926,0.469,1.891,0.943,2.644,1.702c0.731,0.759,1.25,1.683,1.499,2.649
				c0.534,1.925,0.131,3.975-0.974,5.383c-1.124,1.372-2.571,2.169-3.32,3.363c-0.745,1.155-0.814,2.689,0.052,3.4
				c0.851,0.689,1.956,0.691,2.676,1.152c0.719,0.465,1.01,1.147,0.975,1.596c-0.015,0.228-0.111,0.38-0.172,0.473
				C345.722,275.247,345.681,275.285,345.674,275.279z"/>
		</g>
	</g>
</g>
<g id="Tasks">
	<g>
		<g>
			<path style="fill:#455A64;" d="M198.568,185.892H83.495c-1.784,0-3.23-1.446-3.23-3.23v-27.614c0-1.784,1.446-3.23,3.23-3.23
				h115.073c1.784,0,3.23,1.446,3.23,3.23v27.614C201.798,184.445,200.352,185.892,198.568,185.892z"/>
			<path style="fill:#FFFFFF;" d="M105.882,174.537c-2.559,3.191-7.219,3.703-10.41,1.145c-3.191-2.559-3.703-7.219-1.145-10.41
				c2.559-3.191,7.219-3.703,10.41-1.145C107.928,166.686,108.44,171.346,105.882,174.537z"/>
			<g>
				<path style="fill:#E8505B;" d="M104.267,167.39c0.1,0.103-1.691,2.013-4,4.265c-0.336,0.325-0.662,0.639-0.978,0.944
					l-0.182,0.176l-0.174-0.178c-1.801-1.84-3.077-3.262-2.991-3.349c0.087-0.087,1.509,1.19,3.349,2.991l-0.356-0.002
					c0.313-0.308,0.635-0.626,0.968-0.954C102.212,169.03,104.167,167.287,104.267,167.39z"/>
			</g>
			<g>
				<path style="fill:#FFFFFF;" d="M189.936,166.357c0,0.144-15.449,0.26-34.502,0.26c-19.06,0-34.506-0.117-34.506-0.26
					c0-0.144,15.446-0.26,34.506-0.26C174.487,166.097,189.936,166.214,189.936,166.357z"/>
			</g>
			<g>
				<path style="fill:#FFFFFF;" d="M161.632,173.096c0,0.144-8.932,0.26-19.947,0.26c-11.019,0-19.949-0.117-19.949-0.26
					c0-0.144,8.93-0.26,19.949-0.26C152.701,172.836,161.632,172.953,161.632,173.096z"/>
			</g>
		</g>
		<g>
			<path style="fill:#455A64;" d="M198.568,224.868H83.495c-1.784,0-3.23-1.446-3.23-3.23v-27.614c0-1.784,1.446-3.23,3.23-3.23
				h115.073c1.784,0,3.23,1.446,3.23,3.23v27.614C201.798,223.421,200.352,224.868,198.568,224.868z"/>
			<path style="fill:#FFFFFF;" d="M105.882,213.513c-2.559,3.191-7.219,3.703-10.41,1.145c-3.191-2.559-3.703-7.219-1.145-10.41
				c2.559-3.191,7.219-3.703,10.41-1.145C107.928,205.662,108.44,210.322,105.882,213.513z"/>
			<g>
				<path style="fill:#E8505B;" d="M104.267,206.367c0.1,0.103-1.691,2.013-4,4.265c-0.336,0.325-0.662,0.639-0.978,0.944
					l-0.182,0.176l-0.174-0.178c-1.801-1.839-3.077-3.262-2.991-3.349c0.087-0.087,1.509,1.19,3.349,2.991l-0.356-0.002
					c0.313-0.309,0.635-0.626,0.968-0.954C102.212,208.006,104.167,206.264,104.267,206.367z"/>
			</g>
			<g>
				<path style="fill:#FFFFFF;" d="M189.936,205.334c0,0.144-15.449,0.26-34.502,0.26c-19.06,0-34.506-0.117-34.506-0.26
					c0-0.144,15.446-0.26,34.506-0.26C174.487,205.073,189.936,205.19,189.936,205.334z"/>
			</g>
			<g>
				<path style="fill:#FFFFFF;" d="M161.632,212.073c0,0.144-8.932,0.26-19.947,0.26c-11.019,0-19.949-0.117-19.949-0.26
					c0-0.144,8.93-0.26,19.949-0.26C152.701,211.812,161.632,211.929,161.632,212.073z"/>
			</g>
		</g>
		<g>
			<path style="fill:#455A64;" d="M198.568,263.844H83.495c-1.784,0-3.23-1.446-3.23-3.23V233c0-1.784,1.446-3.23,3.23-3.23h115.073
				c1.784,0,3.23,1.446,3.23,3.23v27.614C201.798,262.398,200.352,263.844,198.568,263.844z"/>
			<path style="fill:#FFFFFF;" d="M105.882,252.489c-2.559,3.191-7.219,3.703-10.41,1.145c-3.191-2.559-3.703-7.219-1.145-10.41
				c2.559-3.191,7.219-3.703,10.41-1.145C107.928,244.638,108.44,249.299,105.882,252.489z"/>
			<g>
				<path style="fill:#E8505B;" d="M104.267,245.343c0.1,0.103-1.691,2.013-4,4.265c-0.336,0.325-0.662,0.639-0.978,0.944
					l-0.182,0.176l-0.174-0.178c-1.801-1.84-3.077-3.262-2.991-3.349c0.087-0.087,1.509,1.19,3.349,2.991l-0.356-0.002
					c0.313-0.308,0.635-0.626,0.968-0.954C102.212,246.982,104.167,245.24,104.267,245.343z"/>
			</g>
			<g>
				<path style="fill:#FFFFFF;" d="M189.936,244.31c0,0.144-15.449,0.26-34.502,0.26c-19.06,0-34.506-0.117-34.506-0.26
					s15.446-0.26,34.506-0.26C174.487,244.049,189.936,244.166,189.936,244.31z"/>
			</g>
			<g>
				<path style="fill:#FFFFFF;" d="M161.632,251.049c0,0.144-8.932,0.26-19.947,0.26c-11.019,0-19.949-0.117-19.949-0.26
					c0-0.144,8.93-0.26,19.949-0.26C152.701,250.788,161.632,250.905,161.632,251.049z"/>
			</g>
		</g>
	</g>
</g>
<g id="Character">
	<g>
		<g>
			<g>
				<polygon style="fill:#263238;" points="270.674,358.78 268.762,441.414 265.116,441.414 265.348,358.987 				"/>
				<polygon style="fill:#263238;" points="283.836,357.863 301.557,441.414 305.617,441.414 290.867,357.863 				"/>
				<polygon style="fill:#263238;" points="250.619,358.78 231.01,441.414 226.95,441.414 244.743,358.442 				"/>
			</g>
			<g>
				<g>
					<g>
						<g>
							<g>
								<path style="fill:#263238;" d="M306.846,267.938c0,0,22.466-1.283,20.22,24.714c-2.247,25.996-3.531,52.313-11.875,61.3
									c-8.345,8.987-92.432,9.307-99.493,1.925c-7.061-7.38,13.48-7.06,17.332-7.06c3.851,0,27.601,2.246,35.304-17.973
									C276.036,310.624,274.111,266.655,306.846,267.938z"/>
							</g>
							<g>
								<path style="fill:#455A64;" d="M308.288,267.952c0,0,17.174,3.517,15.568,21.49c-1.605,17.973-6.098,49.425-14.442,57.448
									c-8.345,8.025-41.042,9.772-58.733,8.666c-20.54-1.284-33.506-5.195-33.506-5.195s-3.749,2.41-2.612,3.964
									c1.135,1.552,11.149,7.797,59.699,6.757c48.549-1.041,45.173-8.204,47.189-16.028c2.016-7.826,6.244-49.542,5.657-58.714
									C326.523,277.168,321.902,269.561,308.288,267.952z"/>
							</g>
						</g>
					</g>
				</g>
			</g>
		</g>
		<g>
			<g>
				<path style="fill:#263238;" d="M260.046,191.727c5.343-1.988,11.926,0.193,15.026,4.977c2.171,3.351,2.673,7.581,4.889,10.902
					c1.57,2.352,3.892,4.085,5.806,6.167c1.915,2.082,3.492,4.826,3.009,7.612c-0.454,2.619-2.668,4.931-2.223,7.552
					c0.417,2.454,3.036,4.054,3.543,6.492c0.597,2.871-2.17,5.555-5.067,6.005c-2.897,0.45-5.782-0.67-8.507-1.752
					c-2.725-1.082-5.633-2.167-8.518-1.643c-3.357,0.609-5.92,3.238-8.857,4.975c-6.086,3.6-14.339,3.108-19.954-1.189
					c-2.208-1.689-4.128-4.316-3.594-7.044c0.497-2.541,2.948-4.301,3.662-6.79c1.062-3.702-2.017-7.484-1.552-11.307
					c0.626-5.145,6.965-7.496,9.279-12.134c1.11-2.226,1.208-4.833,2.186-7.119c0.979-2.287,3.521-4.328,5.81-3.354"/>
				<g>
					<g>
						<path style="fill:#FFBE9D;" d="M257.886,238.509c0.337-1.825-0.254-9.527-0.254-9.527s-6.827-0.861-7.121-7.829
							c-0.294-6.969,0.399-23.014,0.399-23.014l12.565-6.034l10.966,12.501l0.207,33.79L257.886,238.509z"/>
						<g>
							<path style="fill:#263238;" d="M251.803,210.439c-0.008,0.492,0.374,0.897,0.853,0.906c0.479,0.008,0.875-0.383,0.883-0.875
								c0.008-0.492-0.374-0.898-0.852-0.906C252.207,209.554,251.811,209.946,251.803,210.439z"/>
							<g>
								<path style="fill:#263238;" d="M251.245,208.879c0.11,0.117,0.76-0.431,1.696-0.466c0.934-0.049,1.629,0.438,1.729,0.312
									c0.049-0.056-0.064-0.271-0.367-0.492c-0.298-0.22-0.803-0.426-1.386-0.4c-0.583,0.027-1.07,0.277-1.348,0.523
									C251.285,208.604,251.191,208.827,251.245,208.879z"/>
							</g>
						</g>
						<g>
							<path style="fill:#263238;" d="M261.975,210.439c-0.008,0.492,0.374,0.897,0.853,0.906c0.479,0.008,0.875-0.383,0.883-0.875
								c0.009-0.492-0.374-0.898-0.852-0.906C262.38,209.554,261.984,209.946,261.975,210.439z"/>
							<g>
								<path style="fill:#263238;" d="M261.605,209.059c0.11,0.117,0.761-0.431,1.696-0.466c0.934-0.049,1.629,0.438,1.729,0.311
									c0.049-0.056-0.063-0.271-0.367-0.492c-0.298-0.22-0.803-0.426-1.386-0.4c-0.583,0.027-1.069,0.276-1.348,0.523
									C261.646,208.783,261.551,209.007,261.605,209.059z"/>
							</g>
						</g>
						<g>
							<path style="fill:#263238;" d="M258.093,217.102c0.003-0.057-0.58-0.141-1.524-0.232c-0.239-0.017-0.466-0.059-0.509-0.232
								c-0.059-0.183,0.037-0.462,0.148-0.765c0.215-0.628,0.44-1.286,0.676-1.977c0.938-2.813,1.612-5.122,1.507-5.159
								c-0.105-0.037-0.951,2.213-1.889,5.026c-0.225,0.693-0.441,1.355-0.646,1.987c-0.086,0.294-0.236,0.63-0.108,1.009
								c0.067,0.189,0.245,0.32,0.399,0.358c0.154,0.044,0.288,0.041,0.407,0.044C257.501,217.178,258.09,217.159,258.093,217.102z"
								/>
						</g>
						<path style="fill:#EB996E;" d="M257.632,228.983c0,0,4.566,0.131,9.04-2.959c0,0-2.125,5.076-8.922,4.669L257.632,228.983z"/>
						<path style="fill:#EB996E;" d="M258.429,219.559c0.107-0.589,0.53-1.111,1.084-1.337c0.384-0.157,0.839-0.172,1.206,0.022
							c0.367,0.194,0.619,0.616,0.556,1.026c-0.071,0.462-0.509,0.799-0.966,0.897c-0.457,0.098-0.931,0.006-1.388-0.094
							c-0.126-0.028-0.256-0.058-0.362-0.133c-0.105-0.075-0.181-0.207-0.152-0.333"/>
						<g>
							<path style="fill:#263238;" d="M260.747,217.065c0.065-0.009,0.178,0.256,0.143,0.71c-0.03,0.445-0.249,1.081-0.769,1.573
								c-0.521,0.49-1.169,0.672-1.615,0.676c-0.455,0.008-0.712-0.12-0.7-0.184c0.003-0.143,1.094-0.055,1.958-0.871
								C260.629,218.154,260.604,217.059,260.747,217.065z"/>
						</g>
					</g>
					<path style="fill:#263238;" d="M250.336,197.363c0.372,4.042,4.221,7.449,8.279,7.326c-0.632-1.388-1.264-2.775-1.896-4.162
						c1.682,1.956,3.426,3.961,5.727,5.127c2.301,1.165,5.326,1.295,7.289-0.379c0.639,1.705,0.627,3.594,1.212,5.319
						c0.585,1.724,1.963,8.833,3.764,8.562c1.653-0.249,2.826-7.418,3.248-9.035c1.166-4.47-0.295-9.395-3.266-12.931
						c-3.527-4.197-9.132-6.541-14.6-6.154c-2.425,0.172-4.869,0.88-6.778,2.387c-1.677,1.324-2.876,3.24-3.333,5.327"/>
					<g>
						<path style="fill:#263238;" d="M240.977,228.758c-0.005,0.017-0.167-0.02-0.473-0.108c-0.304-0.089-0.752-0.247-1.285-0.538
							c-1.072-0.547-2.534-1.667-3.639-3.567c-1.116-1.851-1.706-4.685-0.643-7.443c0.516-1.36,1.372-2.675,2.552-3.738
							c1.154-1.083,2.7-1.853,4.324-2.191c0.786-0.184,1.541-0.412,2.019-0.957c0.486-0.534,0.711-1.275,0.766-2.003
							c0.12-1.474-0.458-2.898-0.621-4.343c-0.202-1.463,0.162-2.898,0.817-4.019c0.646-1.141,1.626-1.952,2.589-2.46
							c0.966-0.513,1.883-0.844,2.662-1.179c0.783-0.327,1.428-0.661,1.911-1c0.975-0.682,1.262-1.32,1.312-1.282
							c0.015,0.009-0.06,0.156-0.223,0.434c-0.189,0.255-0.477,0.644-0.968,1.011c-0.481,0.377-1.134,0.748-1.913,1.103
							c-0.776,0.363-1.681,0.719-2.601,1.234c-0.916,0.512-1.801,1.275-2.393,2.353c-0.596,1.061-0.916,2.384-0.716,3.745
							c0.156,1.367,0.767,2.797,0.653,4.441c-0.058,0.799-0.298,1.654-0.892,2.313c-0.6,0.679-1.494,0.929-2.279,1.114
							c-3.181,0.614-5.576,3.023-6.55,5.593c-1.029,2.601-0.518,5.282,0.516,7.093c1.022,1.851,2.399,2.983,3.417,3.571
							C240.343,228.537,240.996,228.706,240.977,228.758z"/>
					</g>
					<g>
						<path style="fill:#263238;" d="M286.266,237.921c-0.023-0.038,0.591-0.396,1.626-1.141c0.989-0.753,2.563-1.915,3.423-3.994
							c0.392-1.028,0.561-2.303,0.192-3.542c-0.179-0.616-0.504-1.211-0.992-1.678c-0.474-0.481-1.128-0.803-1.787-1.196
							c-1.389-0.722-2.489-2.291-2.536-4.046c-0.074-1.81,1.054-3.313,1.453-4.922c0.41-1.633-0.002-3.336-0.758-4.739
							c-0.749-1.428-1.828-2.585-2.967-3.551c-2.294-1.923-4.679-3.328-6.328-4.97c-1.671-1.611-2.605-3.318-2.94-4.571
							c-0.184-0.624-0.217-1.132-0.241-1.469c0.002-0.341,0.011-0.518,0.029-0.518c0.058-0.005,0.009,0.722,0.406,1.927
							c0.386,1.2,1.336,2.823,3.001,4.364c1.641,1.571,4.02,2.926,6.385,4.87c1.171,0.977,2.313,2.18,3.106,3.677
							c0.801,1.47,1.263,3.309,0.813,5.105c-0.46,1.754-1.528,3.196-1.448,4.779c0.048,1.574,0.982,2.962,2.274,3.653
							c0.631,0.386,1.324,0.73,1.861,1.281c0.546,0.534,0.899,1.207,1.086,1.884c0.383,1.364,0.174,2.713-0.264,3.799
							c-0.458,1.095-1.146,1.923-1.805,2.565c-0.665,0.64-1.308,1.106-1.845,1.46c-0.539,0.353-0.973,0.599-1.271,0.758
							C286.437,237.863,286.275,237.936,286.266,237.921z"/>
					</g>
					<path style="fill:#263238;" d="M250.108,205.7c0.993-0.756,1.614-1.918,1.943-3.122c0.329-1.204,0.392-2.462,0.453-3.709
						c0.018-0.361-0.035-0.826-0.383-0.922c-0.337-0.093-0.62,0.256-0.784,0.565c-1.217,2.291-1.657,4.987-1.231,7.546
						c0.074-0.069,0.148-0.138,0.223-0.206"/>
				</g>
			</g>
			<g>
				<g>
					<g>
						<g>
							<g>
								<path style="fill:#E8505B;" d="M232.658,436.458l-0.184-8.991l16.84-0.453l0.409,13.151l-1.042,0.095
									c-4.64,0.383-23.619,1.621-26.75,0.763C218.437,440.065,232.658,436.458,232.658,436.458z"/>
							</g>
						</g>
						<g style="opacity:0.5;">
							<g>
								<path style="fill:#FFFFFF;" d="M243.614,440.197c0.202-1.413,0.949-2.742,2.052-3.648s2.478-1.406,3.903-1.33l0.13,4.706
									L243.614,440.197z"/>
							</g>
						</g>
					</g>
					<g style="opacity:0.4;">
						<g>
							<path style="fill:#FFFFFF;" d="M225.717,438.469c0,0-4.976,1.582-4.328,2.391c0.648,0.809,19.874,0.28,28.334-0.695
								l-0.037-0.375l-22.421,0.808C227.265,440.597,226.698,438.484,225.717,438.469z"/>
						</g>
					</g>
					<g>
						<g>
							<g>
								<path style="fill:#263238;" d="M249.95,439.772c0,0.007-0.099,0.02-0.289,0.039c-0.249,0.022-0.522,0.046-0.83,0.073
									c-0.831,0.059-1.852,0.131-3.057,0.216c-2.582,0.164-6.153,0.343-10.1,0.456c-3.948,0.111-7.524,0.134-10.111,0.116
									c-1.208-0.017-2.232-0.031-3.064-0.043c-0.309-0.01-0.583-0.018-0.833-0.026c-0.19-0.008-0.29-0.016-0.29-0.023
									c0-0.007,0.1-0.013,0.29-0.018c0.25-0.004,0.524-0.008,0.833-0.012c0.832-0.006,1.856-0.013,3.063-0.022
									c2.587-0.019,6.16-0.064,10.106-0.175c3.945-0.112,7.514-0.269,10.098-0.396c1.206-0.06,2.228-0.11,3.06-0.151
									c0.309-0.013,0.583-0.024,0.833-0.035C249.849,439.764,249.95,439.765,249.95,439.772z"/>
							</g>
						</g>
					</g>
					<g>
						<g>
							<g>
								<path style="fill:#263238;" d="M227.277,440.859c-0.062,0.01-0.13-0.72-0.612-1.445c-0.469-0.734-1.109-1.09-1.076-1.143
									c0.011-0.051,0.741,0.246,1.247,1.031C227.35,440.081,227.328,440.87,227.277,440.859z"/>
							</g>
						</g>
					</g>
					<g>
						<g>
							<g>
								<path style="fill:#263238;" d="M232.176,438.201c-0.047,0.031-0.292-0.251-0.549-0.632c-0.256-0.38-0.426-0.714-0.379-0.745
									c0.047-0.032,0.292,0.251,0.549,0.631C232.053,437.836,232.223,438.17,232.176,438.201z"/>
							</g>
						</g>
					</g>
					<g>
						<g>
							<g>
								<path style="fill:#263238;" d="M233.52,437.443c-0.037,0.043-0.307-0.127-0.604-0.38c-0.297-0.253-0.509-0.492-0.472-0.535
									c0.037-0.043,0.307,0.127,0.605,0.38C233.344,437.16,233.556,437.4,233.52,437.443z"/>
							</g>
						</g>
					</g>
					<g>
						<g>
							<g>
								<path style="fill:#263238;" d="M234.338,435.83c0.002,0.056-0.39,0.117-0.876,0.136s-0.881-0.012-0.883-0.068
									c-0.002-0.056,0.39-0.117,0.875-0.136C233.94,435.743,234.336,435.773,234.338,435.83z"/>
							</g>
						</g>
					</g>
					<g>
						<g>
							<g>
								<path style="fill:#263238;" d="M234.603,434.701c0.02,0.05-0.403,0.255-0.973,0.312c-0.57,0.06-1.026-0.054-1.016-0.107
									c0.008-0.058,0.454-0.038,0.995-0.096C234.151,434.756,234.583,434.645,234.603,434.701z"/>
							</g>
						</g>
					</g>
					<g>
						<g>
							<g>
								<path style="fill:#263238;" d="M231.564,436.748c0.002,0.023-0.412,0.085-1.082,0.023c-0.334-0.031-0.731-0.099-1.159-0.222
									c-0.213-0.069-0.435-0.12-0.667-0.254c-0.109-0.069-0.231-0.166-0.277-0.329c-0.049-0.161,0.033-0.345,0.152-0.437
									c1.02-0.564,2.071-0.011,2.47,0.513c0.219,0.267,0.323,0.53,0.373,0.712c0.048,0.184,0.048,0.29,0.036,0.292
									c-0.038,0.015-0.085-0.424-0.518-0.91c-0.214-0.238-0.534-0.466-0.941-0.575c-0.385-0.103-0.93-0.118-1.287,0.123
									c-0.168,0.132-0.096,0.332,0.098,0.441c0.181,0.11,0.414,0.174,0.616,0.243c0.413,0.13,0.797,0.211,1.122,0.259
									C231.151,436.725,231.564,436.715,231.564,436.748z"/>
							</g>
						</g>
					</g>
					<g>
						<g>
							<g>
								<path style="fill:#263238;" d="M231.285,436.809c-0.015,0.012-0.182-0.26-0.145-0.748c0.02-0.24,0.1-0.525,0.274-0.799
									c0.184-0.245,0.421-0.583,0.886-0.576c0.252,0.025,0.382,0.307,0.347,0.491c-0.015,0.19-0.095,0.355-0.171,0.488
									c-0.154,0.275-0.329,0.499-0.493,0.669c-0.33,0.341-0.595,0.475-0.607,0.455c-0.02-0.026,0.21-0.2,0.499-0.551
									c0.144-0.175,0.299-0.397,0.435-0.662c0.142-0.233,0.233-0.646-0.04-0.688c-0.272-0.019-0.541,0.259-0.7,0.479
									c-0.164,0.239-0.251,0.494-0.287,0.712C231.213,436.522,231.321,436.8,231.285,436.809z"/>
							</g>
						</g>
					</g>
					<g>
						<g>
							<g>
								<path style="fill:#263238;" d="M249.48,435.173c-0.003,0.038-0.484-0.033-1.242,0.078c-0.751,0.105-1.792,0.443-2.684,1.193
									c-0.891,0.752-1.4,1.721-1.63,2.444c-0.237,0.729-0.249,1.215-0.287,1.211c-0.012,0-0.022-0.121-0.01-0.34
									c0.012-0.218,0.055-0.534,0.159-0.913c0.2-0.753,0.708-1.773,1.637-2.558c0.93-0.783,2.021-1.11,2.797-1.181
									c0.391-0.038,0.71-0.027,0.927-0.002C249.364,435.132,249.481,435.161,249.48,435.173z"/>
							</g>
						</g>
					</g>
					<g>
						<g>
							<g>
								<path style="fill:#263238;" d="M247.541,428.214c0.056-0.002,0.164,1.545,0.241,3.455c0.077,1.911,0.094,3.461,0.037,3.463
									c-0.056,0.002-0.164-1.544-0.241-3.455C247.502,429.767,247.485,428.216,247.541,428.214z"/>
							</g>
						</g>
					</g>
					<g>
						<g>
							<g>
								<path style="fill:#263238;" d="M241.45,438.613c0.009,0.053-1.084,0.263-2.452,0.312c-1.368,0.053-2.473-0.076-2.468-0.129
									c0.004-0.059,1.105-0.022,2.461-0.075C240.346,438.673,241.441,438.555,241.45,438.613z"/>
							</g>
						</g>
					</g>
					<g>
						<g>
							<g>
								<path style="fill:#263238;" d="M244.75,438.517c0.042,0.04-0.084,0.236-0.189,0.491c-0.109,0.254-0.161,0.481-0.219,0.479
									c-0.054,0.001-0.094-0.264,0.03-0.558C244.495,438.635,244.712,438.478,244.75,438.517z"/>
							</g>
						</g>
					</g>
					<g>
						<g>
							<g>
								<path style="fill:#263238;" d="M245.951,436.935c0.041,0.039-0.063,0.217-0.232,0.398c-0.169,0.181-0.34,0.297-0.381,0.259
									c-0.041-0.038,0.063-0.217,0.232-0.398C245.739,437.013,245.91,436.897,245.951,436.935z"/>
							</g>
						</g>
					</g>
					<g>
						<g>
							<g>
								<path style="fill:#263238;" d="M247.711,436.179c-0.01,0.057-0.234,0.062-0.479,0.156c-0.247,0.088-0.42,0.23-0.465,0.193
									c-0.046-0.03,0.089-0.273,0.394-0.385C247.466,436.03,247.727,436.127,247.711,436.179z"/>
							</g>
						</g>
					</g>
					<g>
						<g>
							<g>
								<path style="fill:#263238;" d="M248.969,435.811c0.022,0.052-0.072,0.141-0.211,0.199c-0.138,0.058-0.268,0.063-0.29,0.011
									c-0.022-0.052,0.073-0.141,0.211-0.199C248.817,435.763,248.947,435.759,248.969,435.811z"/>
							</g>
						</g>
					</g>
				</g>
			</g>
			<g>
				<g>
					<g>
						<g>
							<g>
								<path style="fill:#E8505B;" d="M191.99,388.353l3.904-8.102l15.222,7.215l-5.586,11.913l-0.972-0.387
									c-4.311-1.758-21.796-9.242-24.201-11.424C177.676,385.135,191.99,388.353,191.99,388.353z"/>
							</g>
						</g>
						<g style="opacity:0.5;">
							<g>
								<path style="fill:#FFFFFF;" d="M200.068,396.645c0.82-1.169,2.087-2.016,3.481-2.325c1.394-0.309,2.845-0.133,4.083,0.58
									l-2.013,4.256L200.068,396.645z"/>
							</g>
						</g>
					</g>
					<g style="opacity:0.4;">
						<g>
							<path style="fill:#FFFFFF;" d="M184.889,387.006c0,0-5.153-0.841-4.941,0.174c0.212,1.014,17.597,9.242,25.583,12.201
								l0.137-0.352l-20.36-9.424C185.307,389.604,185.758,387.463,184.889,387.006z"/>
						</g>
					</g>
					<g>
						<g>
							<g>
								<path style="fill:#263238;" d="M205.911,399.132c-0.003,0.007-0.098-0.027-0.275-0.095c-0.232-0.093-0.486-0.195-0.773-0.31
									c-0.767-0.324-1.711-0.721-2.824-1.191c-2.377-1.022-5.643-2.478-9.213-4.164c-3.571-1.687-6.77-3.285-9.07-4.472
									c-1.07-0.562-1.976-1.038-2.713-1.425c-0.271-0.148-0.511-0.28-0.731-0.4c-0.166-0.094-0.252-0.146-0.248-0.152
									c0.003-0.006,0.095,0.034,0.267,0.115c0.225,0.11,0.471,0.23,0.749,0.366c0.745,0.371,1.661,0.828,2.742,1.366
									c2.315,1.154,5.522,2.73,9.092,4.416c3.568,1.685,6.823,3.161,9.184,4.216c1.103,0.493,2.037,0.91,2.797,1.25
									c0.281,0.128,0.531,0.242,0.758,0.346C205.824,399.08,205.913,399.126,205.911,399.132z"/>
							</g>
						</g>
					</g>
					<g>
						<g>
							<g>
								<path style="fill:#263238;" d="M185.199,389.843c-0.06-0.02,0.21-0.701,0.108-1.566c-0.087-0.867-0.496-1.474-0.442-1.506
									c0.033-0.041,0.549,0.555,0.645,1.484C185.617,389.182,185.24,389.875,185.199,389.843z"/>
							</g>
						</g>
					</g>
					<g>
						<g>
							<g>
								<path style="fill:#263238;" d="M190.771,389.69c-0.056,0.007-0.147-0.356-0.204-0.811c-0.057-0.455-0.057-0.83-0.001-0.836
									c0.056-0.007,0.147,0.356,0.204,0.811C190.826,389.308,190.827,389.683,190.771,389.69z"/>
							</g>
						</g>
					</g>
					<g>
						<g>
							<g>
								<path style="fill:#263238;" d="M192.312,389.621c-0.052,0.022-0.216-0.252-0.367-0.612c-0.151-0.36-0.231-0.669-0.179-0.691
									c0.052-0.022,0.216,0.252,0.367,0.612C192.284,389.29,192.364,389.599,192.312,389.621z"/>
							</g>
						</g>
					</g>
					<g>
						<g>
							<g>
								<path style="fill:#263238;" d="M193.772,388.553c-0.024,0.051-0.401-0.072-0.842-0.275c-0.442-0.203-0.781-0.409-0.757-0.46
									c0.024-0.051,0.401,0.072,0.842,0.275C193.456,388.296,193.795,388.502,193.772,388.553z"/>
							</g>
						</g>
					</g>
					<g>
						<g>
							<g>
								<path style="fill:#263238;" d="M194.519,387.666c-0.005,0.054-0.475,0.045-1.009-0.162c-0.535-0.204-0.89-0.513-0.858-0.555
									c0.033-0.049,0.422,0.172,0.931,0.365C194.09,387.511,194.527,387.608,194.519,387.666z"/>
							</g>
						</g>
					</g>
					<g>
						<g>
							<g>
								<path style="fill:#263238;" d="M190.883,388.117c-0.009,0.021-0.406-0.111-0.976-0.469
									c-0.284-0.179-0.607-0.419-0.933-0.723c-0.159-0.158-0.334-0.303-0.48-0.528c-0.066-0.11-0.131-0.252-0.098-0.419
									c0.029-0.166,0.185-0.293,0.333-0.321c1.165-0.042,1.852,0.927,1.971,1.575c0.074,0.337,0.048,0.619,0.01,0.804
									c-0.04,0.186-0.088,0.28-0.1,0.276c-0.04-0.004,0.116-0.416-0.051-1.046c-0.083-0.309-0.265-0.658-0.579-0.939
									c-0.297-0.266-0.776-0.526-1.204-0.473c-0.21,0.042-0.236,0.253-0.112,0.438c0.112,0.18,0.29,0.342,0.439,0.495
									c0.31,0.303,0.616,0.549,0.884,0.739C190.524,387.909,190.897,388.087,190.883,388.117z"/>
							</g>
						</g>
					</g>
					<g>
						<g>
							<g>
								<path style="fill:#263238;" d="M190.606,388.046c-0.019,0.004-0.045-0.314,0.209-0.733c0.126-0.205,0.327-0.423,0.605-0.588
									c0.276-0.135,0.639-0.329,1.051-0.113c0.213,0.136,0.202,0.447,0.088,0.594c-0.099,0.163-0.246,0.274-0.373,0.358
									c-0.261,0.176-0.519,0.296-0.742,0.373c-0.449,0.154-0.745,0.154-0.747,0.131c-0.006-0.032,0.278-0.083,0.694-0.265
									c0.208-0.091,0.446-0.219,0.688-0.393c0.232-0.143,0.5-0.471,0.276-0.632c-0.234-0.139-0.599-0.014-0.841,0.11
									c-0.254,0.139-0.447,0.327-0.578,0.505C190.671,387.757,190.642,388.054,190.606,388.046z"/>
							</g>
						</g>
					</g>
					<g>
						<g>
							<g>
								<path style="fill:#263238;" d="M207.572,394.819c-0.02,0.033-0.417-0.248-1.143-0.492c-0.717-0.247-1.798-0.416-2.933-0.15
									c-1.135,0.268-2.027,0.901-2.56,1.441c-0.541,0.543-0.771,0.971-0.804,0.95c-0.011-0.006,0.035-0.118,0.145-0.307
									c0.109-0.19,0.29-0.452,0.555-0.743c0.519-0.581,1.433-1.261,2.617-1.54c1.184-0.277,2.305-0.076,3.029,0.213
									c0.366,0.143,0.645,0.297,0.827,0.418C207.487,394.729,207.579,394.809,207.572,394.819z"/>
							</g>
						</g>
					</g>
					<g>
						<g>
							<g>
								<path style="fill:#263238;" d="M208.992,387.736c0.051,0.023-0.552,1.452-1.348,3.19c-0.796,1.739-1.483,3.129-1.534,3.105
									c-0.051-0.023,0.552-1.451,1.348-3.19C208.254,389.103,208.941,387.712,208.992,387.736z"/>
							</g>
						</g>
					</g>
					<g>
						<g>
							<g>
								<path style="fill:#263238;" d="M198.854,394.253c-0.016,0.051-1.085-0.256-2.327-0.831
									c-1.244-0.572-2.171-1.187-2.143-1.232c0.03-0.051,0.996,0.48,2.228,1.047C197.843,393.807,198.873,394.197,198.854,394.253
									z"/>
							</g>
						</g>
					</g>
					<g>
						<g>
							<g>
								<path style="fill:#263238;" d="M201.841,395.661c0.019,0.055-0.181,0.172-0.391,0.352c-0.212,0.177-0.361,0.356-0.412,0.328
									c-0.049-0.024,0.035-0.278,0.279-0.484C201.561,395.651,201.825,395.609,201.841,395.661z"/>
							</g>
						</g>
					</g>
					<g>
						<g>
							<g>
								<path style="fill:#263238;" d="M203.628,394.794c0.019,0.053-0.154,0.165-0.387,0.25c-0.233,0.085-0.438,0.111-0.457,0.058
									c-0.019-0.053,0.154-0.165,0.387-0.25C203.404,394.767,203.608,394.741,203.628,394.794z"/>
							</g>
						</g>
					</g>
					<g>
						<g>
							<g>
								<path style="fill:#263238;" d="M205.54,394.916c-0.035,0.047-0.236-0.051-0.497-0.078c-0.26-0.033-0.479,0.016-0.502-0.038
									c-0.028-0.047,0.203-0.204,0.525-0.165C205.388,394.671,205.577,394.876,205.54,394.916z"/>
							</g>
						</g>
					</g>
					<g>
						<g>
							<g>
								<path style="fill:#263238;" d="M206.828,395.156c-0.004,0.056-0.129,0.093-0.278,0.082c-0.15-0.011-0.267-0.065-0.263-0.121
									c0.004-0.056,0.129-0.093,0.278-0.082C206.714,395.046,206.832,395.1,206.828,395.156z"/>
							</g>
						</g>
					</g>
				</g>
			</g>
			<g>
				<g>
					<path style="fill:#E8505B;" d="M303.043,270.663l-3.581-17.96c-2.639-14.7-23.246-15.712-23.246-15.712l-16.173-0.262
						c0,0-11.989-1.612-19.389,6.731c-7.659,8.634-17.065,18.838-17.065,18.838l7.186,18.073l17.014-14.041
						c0,0-2.282,3.708-2.282,8.168c0,4.787,4.996,6.996,4.996,6.996l1.531,14.574l-5.078,23.53l52.812-2.117
						c-1.031-8.531-3.754-15.837-7.786-22.193l0.981-24.624H303.043z"/>
				</g>
				<g>
					<path style="fill:#263238;" d="M280.374,250.531c0.036-0.005,0.132,0.405,0.277,1.149c0.167,0.852,0.373,1.905,0.618,3.15
						c0.537,2.778,1.238,6.398,2.012,10.401c0.771,4.067,1.437,7.755,1.863,10.436c0.213,1.34,0.366,2.428,0.455,3.183
						c0.083,0.756,0.112,1.175,0.076,1.18c-0.035,0.005-0.132-0.405-0.277-1.148c-0.167-0.852-0.373-1.905-0.618-3.15
						c-0.537-2.778-1.238-6.398-2.012-10.403c-0.771-4.065-1.437-7.754-1.863-10.434c-0.213-1.34-0.366-2.429-0.455-3.183
						C280.367,250.956,280.338,250.536,280.374,250.531z"/>
				</g>
				<g>
					<path style="fill:#263238;" d="M303.307,269.722c0.001,0.144-4.368,0.276-9.756,0.295c-5.39,0.019-9.758-0.082-9.758-0.226
						c-0.001-0.144,4.367-0.276,9.757-0.295C298.938,269.477,303.307,269.578,303.307,269.722z"/>
				</g>
				<path style="fill:#FFBE9D;" d="M305.323,285.994c-1.044-8.626-2.432-15.981-2.432-15.981h-18.698c0,0,2.322,10.945,1.803,13.483
					c-0.452,2.211-36.688,3.676-46.13,3.824c-0.561-0.423-1.379,0.287-2.106-0.346c-0.643-0.56-1.182-1.234-1.606-1.981
					c-0.514-0.907-1.149-2.141-1.292-2.926c-0.177-0.972-1.414-1.219-1.792-0.411c-0.378,0.81,0.048,3.5,1.842,6.101
					c1.794,2.601-2.909,1.249-4.632,0.789c-1.723-0.461-7.117-1.63-7.674-1.199c-0.816,0.632-0.304,1.647,1.426,2.066
					c1.752,0.424,6.835,2.051,6.555,2.973c-0.275,0.908-9.013-1.561-9.013-1.561s-1.785-0.838-2.142,0.216
					c-0.645,1.9,8.832,3.823,9.738,3.984c0.63,0.111,0.361,1.123-0.309,0.967c-0.69-0.161-8.66-2.671-9.335-0.742
					c-0.517,1.479,7.781,1.656,9.154,3.119c1.373,1.462-6.281-0.79-6.719,0.644c-0.163,0.534,3.02,0.782,7.597,1.425
					c4.281,0.602,12.241,0.548,14.147,0.504c10.615,0.582,48.134,1.357,56.142,0.791
					C309.186,301.071,305.682,288.957,305.323,285.994z"/>
				<g>
					<path style="fill:#263238;" d="M245.902,271.173c-0.067-0.025,0.194-0.944,0.635-2.427c0.223-0.741,0.494-1.623,0.833-2.593
						c0.17-0.485,0.357-0.992,0.572-1.512c0.118-0.281,0.266-0.521,0.34-0.754c0.075-0.235,0.103-0.503,0.096-0.775
						c-0.015-0.547-0.154-1.109-0.251-1.658c-0.101-0.542-0.198-1.068-0.293-1.578c-0.167-0.959-0.323-1.854-0.467-2.677
						c-0.251-1.527-0.371-2.478-0.3-2.492c0.07-0.014,0.318,0.913,0.661,2.421c0.177,0.816,0.37,1.704,0.576,2.656
						c0.104,0.508,0.212,1.032,0.323,1.572c0.102,0.544,0.251,1.107,0.271,1.743c0.008,0.316-0.023,0.638-0.125,0.95
						c-0.107,0.314-0.265,0.558-0.362,0.79c-0.216,0.506-0.411,1.003-0.591,1.478c-0.335,0.912-0.647,1.763-0.934,2.545
						C246.356,270.316,245.97,271.198,245.902,271.173z"/>
				</g>
				<path style="fill:#263238;" d="M267.695,202.964c1.449,1.856,2.98,3.987,2.692,6.324c-0.251,2.042-1.882,3.857-1.608,5.896
					c0.316,2.351,3.044,3.884,3.18,6.252c0.113,1.965-1.578,3.482-2.775,5.045c-1.72,2.247-2.58,5.173-2.182,7.975
					c0.398,2.802,2.095,5.426,4.571,6.797c2.476,1.371,5.686,1.393,8.102-0.08c2.238-1.365,3.621-3.795,4.478-6.273
					c1.114-3.219,1.421-7.02-0.496-9.836c-0.776-1.14-1.909-2.125-2.16-3.481c-0.319-1.722,0.903-3.346,1.096-5.087
					c0.259-2.33-1.349-4.459-3.136-5.977c-1.786-1.518-3.878-2.756-5.204-4.689"/>
				<g style="opacity:0.3;">
					<path d="M280.988,255.4c0.655,10.017,1.046,19.246,1.239,29.282c1.498-0.169,2.855-0.471,3.768-1.186
						C286.514,279.218,283.271,266.192,280.988,255.4z"/>
				</g>
				<g>
					<path style="fill:#FAFAFA;" d="M256.618,250.795c-0.139-0.017-0.121-1.054,0.229-2.273c0.346-1.22,0.877-2.111,1.004-2.052
						c0.134,0.06-0.17,1.016-0.503,2.195C257.009,249.842,256.764,250.815,256.618,250.795z"/>
				</g>
				<g>
					<path style="fill:#FAFAFA;" d="M245.982,250.765c-0.079,0.117-0.789-0.231-1.486-0.893c-0.7-0.66-1.085-1.35-0.973-1.435
						c0.116-0.09,0.664,0.429,1.331,1.057C245.518,250.125,246.065,250.644,245.982,250.765z"/>
				</g>
				<g>
					<path style="fill:#FAFAFA;" d="M235.845,259.056c-0.041,0.004-0.089-0.09-0.142-0.271l0.228-0.018
						c0.111,0.429,0.193,1.388,0,2.472c-0.256,1.528-0.924,2.613-1.043,2.548c-0.137-0.064,0.29-1.191,0.53-2.636
						c0.183-1.031,0.222-1.939,0.285-2.372l0.228-0.018C235.915,258.95,235.886,259.052,235.845,259.056z"/>
				</g>
				<g>
					<path style="fill:#FAFAFA;" d="M235.399,269.437c-0.052,0.134-1.034-0.123-2.192-0.573c-1.159-0.451-2.055-0.925-2.003-1.059
						c0.052-0.134,1.034,0.123,2.192,0.574C234.554,268.829,235.451,269.303,235.399,269.437z"/>
				</g>
				<g>
					<path style="fill:#FAFAFA;" d="M243.956,263.69c-0.139-0.022-0.112-0.904,0.21-1.931c0.318-1.028,0.796-1.77,0.923-1.709
						c0.133,0.062-0.12,0.874-0.426,1.864C244.353,262.902,244.1,263.714,243.956,263.69z"/>
				</g>
				<g>
					<path style="fill:#FAFAFA;" d="M252.988,240.927c0.007,0.144-0.748,0.297-1.686,0.341c-0.938,0.045-1.704-0.035-1.711-0.179
						c-0.007-0.144,0.748-0.296,1.686-0.341C252.215,240.704,252.981,240.784,252.988,240.927z"/>
				</g>
				<g>
					<path style="fill:#FAFAFA;" d="M254.831,260.455c-0.088,0.105-0.905-0.5-1.444-1.598c-0.546-1.096-0.531-2.112-0.394-2.118
						c0.15-0.019,0.359,0.886,0.861,1.887C254.344,259.632,254.937,260.348,254.831,260.455z"/>
				</g>
				<g>
					<path style="fill:#FAFAFA;" d="M272.594,256.272c0.101,0.1-0.536,0.899-1.485,1.713c-0.949,0.816-1.834,1.324-1.918,1.209
						c-0.086-0.117,0.647-0.803,1.579-1.604C271.702,256.791,272.491,256.169,272.594,256.272z"/>
				</g>
				<g>
					<path style="fill:#FAFAFA;" d="M263.807,253.511c0.086,0.116-0.47,0.673-1.241,1.244c-0.771,0.572-1.465,0.941-1.551,0.825
						c-0.086-0.115,0.47-0.672,1.241-1.244C263.027,253.765,263.722,253.395,263.807,253.511z"/>
				</g>
				<g>
					<path style="fill:#FAFAFA;" d="M268.115,246.327c-0.062,0.124-1.097-0.293-2.127-1.181c-1.034-0.883-1.603-1.843-1.491-1.923
						c0.119-0.091,0.844,0.687,1.83,1.527C267.308,245.597,268.187,246.196,268.115,246.327z"/>
				</g>
				<g>
					<path style="fill:#FAFAFA;" d="M278.228,243.525c0.087,0.115-0.482,0.692-1.27,1.289c-0.789,0.598-1.498,0.989-1.585,0.874
						c-0.087-0.114,0.482-0.692,1.271-1.289C277.431,243.802,278.141,243.411,278.228,243.525z"/>
				</g>
				<g>
					<path style="fill:#FAFAFA;" d="M286.672,247.531c-0.138-0.052,0.093-0.984,0.32-2.133c0.233-1.148,0.379-2.097,0.526-2.092
						c0.14,0.003,0.226,0.998-0.016,2.194C287.265,246.697,286.802,247.582,286.672,247.531z"/>
				</g>
				<g>
					<path style="fill:#FAFAFA;" d="M288.161,257.158c-0.097,0.106-1.005-0.567-2.028-1.504c-1.023-0.937-1.773-1.782-1.676-1.888
						c0.097-0.106,1.005,0.567,2.028,1.504C287.508,256.206,288.258,257.052,288.161,257.158z"/>
				</g>
				<g>
					<path style="fill:#FAFAFA;" d="M294.989,253.11c-0.132-0.056,0.128-0.965,0.581-2.028c0.453-1.064,0.928-1.881,1.06-1.824
						c0.132,0.056-0.128,0.964-0.581,2.028C295.596,252.349,295.121,253.166,294.989,253.11z"/>
				</g>
				<g>
					<path style="fill:#FAFAFA;" d="M295.347,264.676c-0.126-0.069,0.311-1.109,0.975-2.322c0.665-1.214,1.306-2.141,1.432-2.072
						c0.126,0.069-0.311,1.109-0.975,2.322C296.114,263.818,295.473,264.745,295.347,264.676z"/>
				</g>
				<g>
					<path style="fill:#FAFAFA;" d="M288.609,266.45c-0.115,0.086-0.803-0.633-1.536-1.608c-0.734-0.975-1.235-1.835-1.12-1.921
						c0.115-0.086,0.802,0.633,1.536,1.608C288.222,265.503,288.724,266.363,288.609,266.45z"/>
				</g>
				<g>
					<path style="fill:#FAFAFA;" d="M275.891,271.396c-0.126-0.059,0.391-1.403,1.371-2.872c0.976-1.473,2.015-2.47,2.118-2.376
						c0.112,0.098-0.731,1.225-1.684,2.664C276.738,270.248,276.025,271.461,275.891,271.396z"/>
				</g>
				<g>
					<path style="fill:#FAFAFA;" d="M266.747,270.476c-0.129,0.063-0.761-0.971-1.411-2.309c-0.65-1.339-1.072-2.474-0.943-2.537
						c0.129-0.063,0.761,0.971,1.411,2.31C266.455,269.278,266.877,270.414,266.747,270.476z"/>
				</g>
				<g>
					<path style="fill:#FAFAFA;" d="M255.239,267.796c0.095,0.108-0.843,1.084-2.095,2.178c-1.252,1.095-2.343,1.895-2.438,1.786
						c-0.095-0.108,0.843-1.083,2.095-2.178C254.052,268.487,255.144,267.688,255.239,267.796z"/>
				</g>
				<g>
					<path style="fill:#FAFAFA;" d="M259.611,280.303c-0.119,0.088-0.945-0.844-2.021-1.924c-1.072-1.085-1.998-1.918-1.909-2.036
						c0.081-0.113,1.175,0.554,2.279,1.67C259.066,279.124,259.724,280.223,259.611,280.303z"/>
				</g>
				<g>
					<path style="fill:#FAFAFA;" d="M267.668,280.68c-0.132-0.04,0.138-1.243,0.895-2.546c0.751-1.306,1.659-2.14,1.76-2.046
						c0.112,0.099-0.589,1.053-1.309,2.306C268.287,279.644,267.81,280.728,267.668,280.68z"/>
				</g>
				<g>
					<path style="fill:#FAFAFA;" d="M278.963,281.955c-0.099,0.105-1.208-0.67-2.477-1.73c-1.27-1.061-2.229-2.015-2.143-2.13
						c0.086-0.116,1.194,0.659,2.477,1.731C278.102,280.896,279.061,281.85,278.963,281.955z"/>
				</g>
				<g>
					<path style="fill:#FAFAFA;" d="M277.973,252.219c-0.061,0.125-1.064-0.251-2.115-1.029c-1.055-0.774-1.71-1.621-1.608-1.716
						c0.106-0.103,0.902,0.552,1.917,1.297C277.179,251.521,278.041,252.087,277.973,252.219z"/>
				</g>
				<g>
					<path style="fill:#FAFAFA;" d="M261.633,303.467c0.056,0.139-0.757,0.577-1.656,1.243c-0.905,0.659-1.565,1.304-1.681,1.209
						c-0.111-0.082,0.406-0.922,1.373-1.629C260.631,303.579,261.587,303.336,261.633,303.467z"/>
				</g>
				<g>
					<path style="fill:#FAFAFA;" d="M273.727,308.414c-0.135,0.05-0.613-0.911-1.068-2.146c-0.455-1.235-0.714-2.276-0.58-2.326
						c0.135-0.05,0.613,0.911,1.068,2.146C273.602,307.323,273.862,308.364,273.727,308.414z"/>
				</g>
				<g>
					<path style="fill:#FAFAFA;" d="M285.933,304.092c0.104,0.099-0.518,0.919-1.39,1.83c-0.872,0.911-1.662,1.569-1.766,1.47
						c-0.104-0.099,0.518-0.918,1.39-1.83C285.038,304.651,285.829,303.993,285.933,304.092z"/>
				</g>
				<g>
					<path style="fill:#FAFAFA;" d="M294.956,310.67c-0.101,0.114-0.912-0.527-2.111-0.759c-1.194-0.258-2.192,0.013-2.24-0.132
						c-0.072-0.118,0.982-0.664,2.344-0.379C294.313,309.673,295.068,310.59,294.956,310.67z"/>
				</g>
			</g>
			<g>
				<g>
					<path style="fill:#455A64;" d="M299.927,315.119c0,0-69.06-14.467-75.746-11.299c-6.687,3.167-37.52,79.382-37.52,79.382
						l24.825,10.68l26.718-64.76c0,0,48.35,17.66,56.796,15.906C303.446,343.273,299.927,315.119,299.927,315.119z"/>
					<path style="fill:#455A64;" d="M269.061,319.182c-1.056,0.352-41.004,16.773-43.819,22.052
						c-2.816,5.279,4.101,92.932,4.101,92.932h22.722l-1.408-77.903L295,345.028L269.061,319.182z"/>
					<g>
						<path style="fill:#263238;" d="M295.231,345.206c-0.003,0.018-0.229-0.01-0.655-0.08c-0.478-0.085-1.095-0.194-1.859-0.33
							c-1.612-0.297-3.939-0.755-6.806-1.365c-5.734-1.211-13.629-3.041-22.231-5.507c-4.299-1.245-8.361-2.543-12.029-3.804
							c-3.654-1.3-6.929-2.517-9.626-3.671c-1.36-0.55-2.569-1.095-3.63-1.577c-1.065-0.472-1.974-0.897-2.704-1.27
							c-0.693-0.349-1.252-0.631-1.686-0.85c-0.383-0.199-0.58-0.312-0.572-0.328c0.008-0.016,0.221,0.065,0.618,0.233
							c0.444,0.196,1.016,0.448,1.726,0.761c0.743,0.344,1.662,0.742,2.736,1.187c1.069,0.456,2.286,0.976,3.652,1.503
							c2.708,1.108,5.99,2.286,9.643,3.558c3.668,1.233,7.726,2.514,12.017,3.757c8.586,2.462,16.457,4.346,22.167,5.648
							c2.811,0.634,5.107,1.151,6.767,1.526c0.756,0.175,1.366,0.316,1.839,0.425C295.016,345.126,295.235,345.188,295.231,345.206z
							"/>
					</g>
					<g>
						<path style="fill:#263238;" d="M225.251,361.37c-0.036,0.003-0.109-0.465-0.21-1.312c-0.101-0.951-0.228-2.156-0.38-3.594
							c-0.145-1.555-0.312-3.356-0.496-5.336c-0.162-1.999-0.447-4.253-0.01-6.61c0.422-2.377,1.807-4.346,3.316-5.712
							c1.517-1.393,3.157-2.279,4.545-2.923c1.396-0.641,2.566-1.05,3.373-1.329c0.809-0.274,1.264-0.405,1.276-0.372
							c0.038,0.093-1.757,0.718-4.49,2.033c-1.35,0.678-2.932,1.579-4.377,2.942c-1.442,1.345-2.731,3.208-3.132,5.459
							c-0.419,2.245-0.162,4.466-0.023,6.472c0.143,1.984,0.273,3.788,0.385,5.346c0.086,1.443,0.158,2.653,0.214,3.608
							C225.282,360.894,225.287,361.367,225.251,361.37z"/>
					</g>
					<g>
						<path style="fill:#263238;" d="M245.182,353.84c0.058-0.132,1.309,0.292,2.794,0.945c1.486,0.654,2.643,1.29,2.585,1.422
							c-0.058,0.132-1.309-0.292-2.794-0.945C246.281,354.608,245.124,353.972,245.182,353.84z"/>
					</g>
					<g>
						<path style="fill:#263238;" d="M247.186,351.444c0.14-0.06,0.77,1.2,1.809,2.565c1.029,1.373,2.069,2.323,1.973,2.441
							c-0.078,0.111-1.311-0.693-2.389-2.127C247.494,352.895,247.058,351.488,247.186,351.444z"/>
					</g>
				</g>
				<g>
					<path style="fill:#263238;" d="M255.908,355.041c0.017,0.012-0.067,0.188-0.35,0.357c-0.277,0.179-0.753,0.299-1.317,0.311
						c-0.56,0.028-1.229-0.059-1.888,0.049c-0.678,0.087-1.132,0.63-1.129,1.446c-0.025,3.329-0.135,6.07-0.283,6.064
						c-0.139-0.007-0.264-2.708-0.237-6.094c0.024-0.433,0.113-0.925,0.429-1.291c0.298-0.373,0.756-0.547,1.142-0.599
						c0.788-0.095,1.432,0.042,1.969,0.057C255.338,355.452,255.856,354.985,255.908,355.041z"/>
				</g>
			</g>
			<polygon style="opacity:0.3;" points="250.459,303.366 297.534,307.148 295.523,301.884 250.918,301.237 			"/>
		</g>
		<g>
			<polygon style="fill:#263238;" points="377.862,293.035 100.367,293.035 100.367,300.444 115.21,300.444 107.559,441.184 
				111.783,441.414 119.447,300.444 362.726,300.444 369.254,441.299 373.489,441.299 366.962,300.444 377.862,300.444 			"/>
			<g>
				<g>
					<polygon style="fill:#263238;" points="181.303,249.275 196.691,294.24 266.367,294.24 265.853,291.925 237.679,291.054 
						224.699,249.251 					"/>
				</g>
				<g>
					<path style="fill:#FFFFFF;" d="M212.179,270.395c0.46,1.842-0.329,3.647-1.763,4.031c-1.433,0.384-2.968-0.799-3.428-2.642
						c-0.46-1.842,0.329-3.647,1.763-4.03C210.184,267.37,211.719,268.552,212.179,270.395z"/>
				</g>
			</g>
		</g>
	</g>
</g>
</svg>
